<?xml version="1.0" encoding="UTF-8" standalone="no"?>
<!-- Created with Inkscape (http://www.inkscape.org/) -->

<svg
   xmlns:dc="http://purl.org/dc/elements/1.1/"
   xmlns:cc="http://creativecommons.org/ns#"
   xmlns:rdf="http://www.w3.org/1999/02/22-rdf-syntax-ns#"
   xmlns:svg="http://www.w3.org/2000/svg"
   xmlns="http://www.w3.org/2000/svg"
   xmlns:sodipodi="http://sodipodi.sourceforge.net/DTD/sodipodi-0.dtd"
   xmlns:inkscape="http://www.inkscape.org/namespaces/inkscape"
   width="177.16536"
   height="91.692238"
   id="svg2"
   version="1.1"
   inkscape:version="0.91 r13725"
   sodipodi:docname="chilipeppr logo main nogroups.svg">
  <defs
     id="defs4">
    <clipPath
       id="clipPath3017"
       clipPathUnits="userSpaceOnUse">
      <path
         id="path3019"
         d="M 0,792 612,792 612,0 0,0 0,792 Z"
         inkscape:connector-curvature="0" />
    </clipPath>
  </defs>
  <sodipodi:namedview
     id="base"
     pagecolor="#ffffff"
     bordercolor="#666666"
     borderopacity="1.0"
     inkscape:pageopacity="0.0"
     inkscape:pageshadow="2"
     inkscape:zoom="6.096"
     inkscape:cx="88.582681"
     inkscape:cy="45.846131"
     inkscape:document-units="px"
     inkscape:current-layer="layer1"
     showgrid="false"
     inkscape:window-width="1500"
     inkscape:window-height="937"
     inkscape:window-x="-8"
     inkscape:window-y="-8"
     inkscape:window-maximized="1"
     fit-margin-top="0"
     fit-margin-left="0"
     fit-margin-right="0"
     fit-margin-bottom="0"
     units="px" />
  <metadata
     id="metadata7">
    <rdf:RDF>
      <cc:Work
         rdf:about="">
        <dc:format>image/svg+xml</dc:format>
        <dc:type
           rdf:resource="http://purl.org/dc/dcmitype/StillImage" />
        <dc:title></dc:title>
      </cc:Work>
    </rdf:RDF>
  </metadata>
  <g
     inkscape:label="Layer 1"
     inkscape:groupmode="layer"
     id="layer1"
     transform="translate(-188.89727,-614.97877)">
    <path
       id="path3031"
       style="fill:none;fill-opacity:1;fill-rule:evenodd;stroke:#000000;stroke-width:0.38781801;stroke-opacity:1"
       d="m 234.78478,616.66808 c -0.62972,0.51483 -0.81539,0.32819 -0.71552,-0.71552 -0.80715,0.26662 -0.1401,2.00695 -0.35776,2.86258 -5.24282,-1.3627 -9.45695,-0.0339 -13.95467,2.50433 0.52453,1.14552 1.22599,2.11361 1.07378,3.93587 2.79374,1.31034 5.8924,1.80723 6.4402,5.3674 0.83478,5.42509 -4.14044,13.5969 -6.4402,19.67886 -2.49804,6.60308 -4.53263,14.20189 -5.00964,20.75262 -0.22494,3.08752 -0.14253,6.44214 0.71552,8.94502 0.88665,2.5853 2.77532,4.34647 3.93635,6.44069 1.2638,2.28134 2.13252,4.76095 3.21986,6.79845 2.21832,4.15741 4.69551,7.49216 7.15621,13.23817 -3.79189,0.0368 -7.92603,-1.82032 -12.16536,-2.8621 -2.06562,-0.50756 -8.26295,-6.23514 -10.0188,-8.2295 -2.2634,-2.57075 -4.61067,-6.49983 -6.79845,-10.01879 -4.79973,-7.72049 -6.68646,-12.45671 -7.87173,-23.97248 -0.61227,-5.95544 -3.93005,-9.47876 -4.65139,-15.02795 -1.37773,-10.60682 3.17526,-18.79948 6.79845,-26.11954 0.83187,-1.06893 1.66277,-0.10956 2.86258,-0.71553 1.60072,-0.80908 1.96236,-2.89651 3.93587,-3.22034 2.32303,-0.38103 4.07112,1.59151 6.79796,2.14657 1.01124,0.20603 2.96196,-0.15367 4.29412,0 1.27592,0.14834 2.59207,0.77176 3.22034,0.71601 1.3816,-0.12313 2.26243,-1.32585 3.57811,-1.7893 2.24255,-0.79018 5.39794,-1.49164 7.15621,-1.78881 0.83914,-0.14204 2.2857,-0.31995 3.21986,-0.35776 0.81102,-0.0335 3.45448,-0.45714 3.5781,1.43105"
       inkscape:connector-curvature="0" />
    <path
       inkscape:connector-curvature="0"
       id="path3343"
       style="font-variant:normal;font-weight:normal;font-stretch:normal;font-size:85.80249786px;font-family:Arial;-inkscape-font-specification:ArialMT;writing-mode:lr-tb;fill:none;fill-opacity:1;fill-rule:nonzero;stroke:#000000;stroke-width:0.38781801;stroke-opacity:1"
       d="m 246.40584,665.4722 3.1521,0.79615 q -0.99112,3.88325 -3.57455,5.93049 -2.56716,2.03099 -6.28794,2.03099 -3.85076,0 -6.2717,-1.5598 -2.40469,-1.57605 -3.67203,-4.54942 -1.25109,-2.97337 -1.25109,-6.38543 0,-3.72078 1.41357,-6.48292 1.42981,-2.7784 4.04573,-4.20822 2.63216,-1.44606 5.78426,-1.44606 3.57455,0 6.01173,1.81976 2.4372,1.81977 3.39582,5.1181 l -3.10335,0.73116 q -0.82865,-2.59967 -2.40469,-3.78577 -1.57605,-1.1861 -3.9645,-1.1861 -2.7459,0 -4.59816,1.31608 -1.83602,1.31608 -2.58342,3.54205 -0.74741,2.20972 -0.74741,4.56567 0,3.03836 0.87739,5.31307 0.89364,2.25846 2.76215,3.37957 1.86851,1.12111 4.04573,1.12111 2.64841,0 4.48443,-1.52731 1.83601,-1.5273 2.48593,-4.53317 z" />
    <path
       inkscape:connector-curvature="0"
       id="path3345"
       style="font-variant:normal;font-weight:normal;font-stretch:normal;font-size:85.80249786px;font-family:Arial;-inkscape-font-specification:ArialMT;writing-mode:lr-tb;fill:none;fill-opacity:1;fill-rule:nonzero;stroke:#000000;stroke-width:0.38781801;stroke-opacity:1"
       d="m 251.36483,673.82363 0,-23.81946 2.92463,0 0,8.54642 q 2.04724,-2.3722 5.16684,-2.3722 1.91725,0 3.33082,0.76365 1.41357,0.7474 2.01475,2.07973 0.61742,1.33233 0.61742,3.86701 l 0,10.93485 -2.92463,0 0,-10.93485 q 0,-2.19347 -0.95863,-3.1846 -0.94238,-1.00736 -2.68091,-1.00736 -1.29983,0 -2.45343,0.68241 -1.13736,0.66616 -1.62479,1.81976 -0.48744,1.15361 -0.48744,3.1846 l 0,9.44004 -2.92463,0 z" />
    <path
       inkscape:connector-curvature="0"
       id="path3347"
       style="font-variant:normal;font-weight:normal;font-stretch:normal;font-size:85.80249786px;font-family:Arial;-inkscape-font-specification:ArialMT;writing-mode:lr-tb;fill:none;fill-opacity:1;fill-rule:nonzero;stroke:#000000;stroke-width:0.38781801;stroke-opacity:1"
       d="m 268.21861,653.36749 0,-3.36332 2.92463,0 0,3.36332 -2.92463,0 z m 0,20.45614 0,-17.2553 2.92463,0 0,17.2553 -2.92463,0 z" />
    <path
       inkscape:connector-curvature="0"
       id="path3349"
       style="font-variant:normal;font-weight:normal;font-stretch:normal;font-size:85.80249786px;font-family:Arial;-inkscape-font-specification:ArialMT;writing-mode:lr-tb;fill:none;fill-opacity:1;fill-rule:nonzero;stroke:#000000;stroke-width:0.38781801;stroke-opacity:1"
       d="m 273.92735,673.82363 0,-23.81946 2.92463,0 0,23.81946 -2.92463,0 z" />
    <path
       inkscape:connector-curvature="0"
       id="path3351"
       style="font-variant:normal;font-weight:normal;font-stretch:normal;font-size:85.80249786px;font-family:Arial;-inkscape-font-specification:ArialMT;writing-mode:lr-tb;fill:none;fill-opacity:1;fill-rule:nonzero;stroke:#000000;stroke-width:0.38781801;stroke-opacity:1"
       d="m 279.66547,653.36749 0,-3.36332 2.92463,0 0,3.36332 -2.92463,0 z m 0,20.45614 0,-17.2553 2.92463,0 0,17.2553 -2.92463,0 z" />
    <path
       inkscape:connector-curvature="0"
       id="path3353"
       style="font-variant:normal;font-weight:normal;font-stretch:normal;font-size:85.80249786px;font-family:Arial;-inkscape-font-specification:ArialMT;writing-mode:lr-tb;fill:none;fill-opacity:1;fill-rule:nonzero;stroke:#000000;stroke-width:0.38781801;stroke-opacity:1"
       d="m 285.94602,673.82363 0,-23.81946 8.9851,0 q 2.3722,0 3.62328,0.22747 1.75478,0.29247 2.94088,1.12111 1.1861,0.8124 1.90101,2.29096 0.73116,1.47856 0.73116,3.24959 0,3.03836 -1.93351,5.15059 -1.9335,2.09598 -6.98661,2.09598 l -6.10922,0 0,9.68376 -3.15209,0 z m 3.15209,-12.49465 6.15797,0 q 3.05461,0 4.33819,-1.13735 1.28359,-1.13736 1.28359,-3.20085 0,-1.4948 -0.76365,-2.55092 -0.74741,-1.07237 -1.98225,-1.41357 -0.79615,-0.21122 -2.94088,-0.21122 l -6.09297,0 0,8.51391 z" />
    <path
       inkscape:connector-curvature="0"
       id="path3355"
       style="font-variant:normal;font-weight:normal;font-stretch:normal;font-size:85.80249786px;font-family:Arial;-inkscape-font-specification:ArialMT;writing-mode:lr-tb;fill:none;fill-opacity:1;fill-rule:nonzero;stroke:#000000;stroke-width:0.38781801;stroke-opacity:1"
       d="m 317.41656,668.26685 3.02212,0.3737 q -0.71492,2.64841 -2.64842,4.11072 -1.9335,1.46231 -4.93937,1.46231 -3.78576,0 -6.01173,-2.32345 -2.20972,-2.3397 -2.20972,-6.54791 0,-4.35445 2.24221,-6.75914 2.24222,-2.40469 5.81676,-2.40469 3.46081,0 5.65428,2.35595 2.19347,2.35594 2.19347,6.62915 0,0.25997 -0.0163,0.7799 l -12.86835,0 q 0.16248,2.84339 1.60854,4.35444 1.44607,1.51106 3.60704,1.51106 1.60855,0 2.7459,-0.84489 1.13735,-0.84489 1.80352,-2.69715 z m -9.60252,-4.72815 9.63502,0 q -0.19498,-2.17723 -1.10486,-3.26583 -1.39733,-1.68979 -3.62329,-1.68979 -2.01474,0 -3.39582,1.34858 -1.36482,1.34857 -1.51105,3.60704 z" />
    <path
       inkscape:connector-curvature="0"
       id="path3357"
       style="font-variant:normal;font-weight:normal;font-stretch:normal;font-size:85.80249786px;font-family:Arial;-inkscape-font-specification:ArialMT;writing-mode:lr-tb;fill:none;fill-opacity:1;fill-rule:nonzero;stroke:#000000;stroke-width:0.38781801;stroke-opacity:1"
       d="m 322.54167,680.43654 0,-23.86821 2.66466,0 0,2.24222 q 0.94238,-1.31608 2.12848,-1.966 1.1861,-0.66616 2.87588,-0.66616 2.20972,0 3.89951,1.13735 1.68978,1.13736 2.55092,3.21709 0.86114,2.06349 0.86114,4.53317 0,2.64841 -0.95863,4.77689 -0.94238,2.11223 -2.76215,3.24959 -1.80352,1.1211 -3.80201,1.1211 -1.46231,0 -2.63217,-0.61742 -1.1536,-0.61742 -1.901,-1.5598 l 0,8.40018 -2.92463,0 z m 2.64841,-15.14307 q 0,3.33083 1.34858,4.92313 1.34858,1.59229 3.26584,1.59229 1.94975,0 3.33082,-1.64104 1.39732,-1.65729 1.39732,-5.11809 0,-3.29833 -1.36482,-4.93937 -1.34858,-1.64104 -3.23334,-1.64104 -1.86851,0 -3.31458,1.75477 -1.42982,1.73853 -1.42982,5.06935 z" />
    <path
       inkscape:connector-curvature="0"
       id="path3359"
       style="font-variant:normal;font-weight:normal;font-stretch:normal;font-size:85.80249786px;font-family:Arial;-inkscape-font-specification:ArialMT;writing-mode:lr-tb;fill:none;fill-opacity:1;fill-rule:nonzero;stroke:#000000;stroke-width:0.38781801;stroke-opacity:1"
       d="m 339.51229,680.43654 0,-23.86821 2.66467,0 0,2.24222 q 0.94238,-1.31608 2.12847,-1.966 1.1861,-0.66616 2.87589,-0.66616 2.20971,0 3.8995,1.13735 1.68979,1.13736 2.55092,3.21709 0.86115,2.06349 0.86115,4.53317 0,2.64841 -0.95863,4.77689 -0.94238,2.11223 -2.76215,3.24959 -1.80352,1.1211 -3.80202,1.1211 -1.46231,0 -2.63216,-0.61742 -1.1536,-0.61742 -1.90101,-1.5598 l 0,8.40018 -2.92463,0 z m 2.64842,-15.14307 q 0,3.33083 1.34858,4.92313 1.34858,1.59229 3.26583,1.59229 1.94975,0 3.33082,-1.64104 1.39733,-1.65729 1.39733,-5.11809 0,-3.29833 -1.36483,-4.93937 -1.34858,-1.64104 -3.23334,-1.64104 -1.86851,0 -3.31457,1.75477 -1.42982,1.73853 -1.42982,5.06935 z" />
    <path
       inkscape:connector-curvature="0"
       id="path3361"
       style="font-variant:normal;font-weight:normal;font-stretch:normal;font-size:85.80249786px;font-family:Arial;-inkscape-font-specification:ArialMT;writing-mode:lr-tb;fill:none;fill-opacity:1;fill-rule:nonzero;stroke:#000000;stroke-width:0.38781801;stroke-opacity:1"
       d="m 356.45046,673.82363 0,-17.2553 2.63216,0 0,2.61592 q 1.00737,-1.83601 1.85227,-2.42094 0.86114,-0.58492 1.88475,-0.58492 1.47857,0 3.00587,0.94238 l -1.00737,2.7134 q -1.07236,-0.63367 -2.14473,-0.63367 -0.95862,0 -1.72228,0.58492 -0.76365,0.56868 -1.08861,1.5923 -0.48743,1.5598 -0.48743,3.41207 l 0,9.03384 -2.92463,0 z" />
  </g>
</svg>
